<svg xmlns="http://www.w3.org/2000/svg" viewBox="175 489.05 843.93 221.9"><g fill="#60bfcd"><path d="m499.861 550.838.104 107.581 69.841-.067-.02-21.69-43.959.043-.022-22.847 36.005-.035-.02-21.69-36.006.035-.019-19.955 42.368-.04-.021-21.401Zm106.384 107.479 29.788-.029 26.526-82.302-24.726.024-9.94 38.039c-2.162 7.955-4.323 16.488-6.194 25.166h-.723c-2.177-8.673-4.21-17.203-6.242-25.154l-9.87-38.02-26.027.025Zm104.403 1.923c9.688-.009 20.963-3.346 29.489-9.427l-8.547-15.464c-5.925 3.476-11.418 5.217-17.346 5.223-10.412.01-18.224-4.61-20.549-15.887l48.296-.046c.577-1.88 1.15-6.508 1.146-10.99-.021-22.558-11.606-39.754-35.32-39.731-19.955.019-39.026 16.522-39 43.128.026 27.329 18.26 43.217 41.83 43.194Zm-17.403-52.328c1.726-9.834 7.94-14.323 15.025-14.33 9.399-.008 13.02 6.061 13.027 14.303Zm89.847 52.259c5.639-.006 9.976-1.022 12.722-2.182l-3.055-18.94c-1.445.291-2.024.292-2.891.293-2.025.002-4.63-1.586-4.634-6.937l-.087-89.795-25.594.024.086 88.784c.016 17.207 5.811 28.77 23.453 28.753Zm24.58-2.049 25.593-.024-.079-82.277-25.594.025Zm12.778-93.567c8.532-.009 14.6-5.654 14.592-13.173-.007-7.953-6.086-13.442-14.617-13.434-8.676.009-14.744 5.51-14.736 13.462.007 7.52 6.085 13.153 14.761 13.145Zm33.558 11.246.08 82.277 25.594-.025-.053-54.948c5.2-4.776 8.524-7.382 14.308-7.388 6.507-.006 9.546 3.317 9.558 14.74l.045 47.573 25.739-.025-.05-51.043c-.019-20.389-7.695-33.25-25.625-33.233-11.134.01-19.516 5.658-26.305 12.316h-.579l-1.745-10.264Zm132.39 84.173c9.688-.009 20.963-3.346 29.489-9.427l-8.547-15.464c-5.925 3.476-11.418 5.217-17.347 5.222-10.41.01-18.223-4.61-20.548-15.886l48.296-.046c.577-1.88 1.15-6.508 1.146-10.99-.021-22.558-11.606-39.754-35.32-39.732-19.955.02-39.026 16.522-39 43.129.026 27.329 18.26 43.217 41.83 43.194Zm-17.403-52.328c1.726-9.834 7.94-14.323 15.025-14.33 9.399-.009 13.02 6.061 13.027 14.303ZM270.922 684.586l.007-.008-.004.004ZM336.286 582.536c-8.712-30.318-27.525-52.23-61.168-60.503-3.944-.97-7.935-2.31-13.556-1.125 19.84 4.689 35.464 13.555 46.327 28.53 17.017 23.459 22.86 49.738 20.163 77.803-.247 2.564.557 5.673-2.146 8.053-4.257-23.084-10.962-38.795-18.827-43.249 14.316 33.309 15.05 65.734-4.335 97.088 1.092.723 1.706.431 2.229-.107 29.702-30.484 43.126-65.384 31.313-106.49Z"/><path d="M255.36 607.593c-12.204-13.315-24.472-26.605-29.541-44.157-.259-.895-.457-2.364-1.949-1.806-1.492.56-.944 2.178-.725 3.151 1.578 6.973 3.385 13.887 6.663 20.388 5.79 11.48 13.766 21.598 21.901 31.636 8.235 10.162 16.914 20.034 23.462 31.313 12.276 21.142 8.782 28.269-4.395 47.196 37.583-16.462 44.72-37.158-15.416-87.721ZM211.25 592.096c-7.877 9.633-13.964 18.8-18.46 28.83-10.366 23.127-5.481 42.344 14.778 58.74 3.573 2.892 7.145 5.845 13.137 8.083-3.084-4.072-5.299-6.891-7.397-9.786-36.637-32.668-2.071-80.19-2.058-85.867ZM258.432 586.457c-13.482-10.047-23.133-22.441-27.122-38.388-.822-3.283-1.477-6.602-2.21-9.905l-1.255.035c-.083 1.59-.29 3.183-.229 4.766.459 12.033 4.238 23.08 11.203 33.18 8.567 12.422 20.033 22.401 31.104 32.713 12.806 11.93 25.026 24.25 30.554 40.99.042.13.586.112 1.294.229-1.16-16.386-6.321-31.094-18.138-43.401-7.465-7.774-16.545-13.768-25.201-20.219ZM224.47 521.808c-23.19-.315-57.075 39.915-47.945 68.306 2.629-13.9 7.69-26.887 15.404-38.878 7.863-12.223 17.672-22.711 32.541-29.428ZM203.07 582.79c.519-.862 1.316-1.95.161-2.721-1.167-.783-1.964.367-2.677 1.055-3.674 3.532-7.436 6.992-10.933 10.674-13.41 14.114-15.433 30.078-8.186 47.454-.305-16.502 6.394-30.934 14.637-44.922 2.283-3.874 4.684-7.684 6.998-11.54ZM411.876 710.95v-221.9h3.212v221.9Z"/></g></svg>